<svg width="13" height="25" viewBox="0 0 13 25" fill="none" xmlns="http://www.w3.org/2000/svg">
<path fill-rule="evenodd" clip-rule="evenodd" d="M3.65445 18.0249C3.65445 16.2692 3.65445 14.5134 3.65445 12.7577C3.65445 12.4651 3.59677 12.348 3.30842 12.4066C2.78938 12.4066 2.21267 12.4066 1.69363 12.4066C1.46294 12.4066 1.40527 12.348 1.40527 12.1139C1.40527 11.002 1.40527 9.94855 1.40527 8.83659C1.40527 8.60249 1.46294 8.54397 1.69363 8.54397C2.27034 8.54397 2.78938 8.54397 3.36609 8.54397C3.71212 8.54397 3.76979 8.42692 3.76979 8.1343C3.76979 7.31496 3.76979 6.49562 3.76979 5.61776C3.76979 4.62285 4.05814 3.62794 4.63485 2.8086C5.38457 1.75516 6.48032 1.28697 7.69141 1.22845C8.96017 1.16992 10.2289 1.22845 11.4977 1.16992C11.6707 1.16992 11.7284 1.22845 11.7284 1.40402C11.7284 2.51598 11.7284 3.62794 11.7284 4.7399C11.7284 4.91547 11.6707 4.97399 11.4977 4.97399C10.8633 4.97399 10.2866 4.97399 9.65222 4.97399C8.84483 4.97399 8.32579 5.38366 8.26812 6.203C8.21045 6.84677 8.26812 7.54906 8.26812 8.19282C8.26812 8.42692 8.38346 8.42692 8.55648 8.42692C9.47921 8.42692 10.4019 8.42692 11.3247 8.42692C11.613 8.42692 11.6707 8.48544 11.6707 8.77806C11.5554 9.89002 11.44 11.002 11.3823 12.0554C11.3823 12.2895 11.267 12.348 11.0363 12.348C10.2866 12.348 9.53688 12.348 8.84483 12.348C8.32579 12.348 8.38346 12.2895 8.38346 12.8162C8.38346 16.2692 8.38346 19.6636 8.38346 23.1165C8.38346 23.4676 8.26812 23.5847 7.92209 23.5847C6.65333 23.5847 5.38457 23.5847 4.11581 23.5847C3.76978 23.5847 3.71211 23.4676 3.71211 23.175C3.65444 21.4778 3.65445 19.7221 3.65445 18.0249Z" stroke="#314961" stroke-miterlimit="10" stroke-linecap="round" stroke-linejoin="round"/>
</svg>
