<svg width="23" height="23" viewBox="0 0 23 23" fill="none" xmlns="http://www.w3.org/2000/svg">
<path d="M15.3853 22.2328H7.54204C3.96643 22.2328 1.08289 19.3066 1.08289 15.6781V7.71877C1.08289 4.09027 3.96643 1.16406 7.54204 1.16406H15.3853C18.9609 1.16406 21.8445 4.09027 21.8445 7.71877V15.6781C21.8445 19.3066 18.9609 22.2328 15.3853 22.2328Z" stroke="#314961" stroke-miterlimit="10" stroke-linecap="round" stroke-linejoin="round"/>
<path d="M11.4637 16.3805C14.0117 16.3805 16.0773 14.2843 16.0773 11.6985C16.0773 9.11277 14.0117 7.0166 11.4637 7.0166C8.91559 7.0166 6.84998 9.11277 6.84998 11.6985C6.84998 14.2843 8.91559 16.3805 11.4637 16.3805Z" stroke="#314961" stroke-miterlimit="10" stroke-linecap="round" stroke-linejoin="round"/>
<path d="M17.2308 6.31411C17.6449 6.31411 17.9805 5.97348 17.9805 5.5533C17.9805 5.13311 17.6449 4.79248 17.2308 4.79248C16.8167 4.79248 16.4811 5.13311 16.4811 5.5533C16.4811 5.97348 16.8167 6.31411 17.2308 6.31411Z" stroke="#314961" stroke-miterlimit="10" stroke-linecap="round" stroke-linejoin="round"/>
</svg>
