<svg width="153" height="25" viewBox="0 0 153 25" fill="none" xmlns="http://www.w3.org/2000/svg">
<path d="M35.174 18.9368C35.174 15.5787 37.7022 12.8923 41.0288 12.8923C41.1619 12.8923 41.295 12.8923 41.295 12.8923C44.6216 12.758 47.416 15.3101 47.5491 18.6681C47.6821 22.0262 45.1539 24.847 41.8272 24.9813C41.6942 24.9813 41.428 24.9813 41.295 24.9813C37.9683 25.1156 35.307 22.5635 35.174 19.3397C35.174 19.2054 35.174 19.0711 35.174 18.9368ZM45.0208 18.9368C45.0208 16.7876 43.424 15.1758 41.295 15.1758C39.1659 15.1758 37.5691 16.7876 37.5691 18.9368C37.5691 21.0859 39.1659 22.6978 41.295 22.6978C43.291 22.8321 45.0208 21.2203 45.0208 19.2054C45.1539 19.0711 45.1539 19.0711 45.0208 18.9368Z" fill="#2B8CFC"/>
<path d="M75.3595 24.3087L70.0369 16.6524C69.3716 16.6524 68.8393 16.7867 68.174 16.7867H61.7869V24.3087H59.2586V0.533691H68.0409C74.0289 0.533691 77.6217 3.6231 77.6217 8.72735C77.7547 12.2197 75.4926 15.3091 72.299 16.2494L78.0209 24.4431H75.3595V24.3087ZM75.2265 8.59303C75.2265 4.832 72.6982 2.68285 68.0409 2.68285H61.7869V14.6375H68.0409C72.6982 14.5032 75.2265 12.354 75.2265 8.59303Z" fill="#506B86"/>
<path d="M94.5208 2.68285H86.2708V0.533691H105.299V2.68285H97.0491V24.3087H94.5208V2.68285Z" fill="#506B86"/>
<path d="M115.146 0.533691H117.675V24.3087H115.146V0.533691Z" fill="#506B86"/>
<path d="M40.097 0.533691H42.4922V13.5629H40.097V0.533691Z" fill="#2B8CFC"/>
<path d="M152.272 0.533691V24.3087H150.276L134.973 4.96632V24.3087H132.445V0.533691H134.441L149.61 19.8761V0.533691H152.272Z" fill="#506B86"/>
<path d="M21.6011 16.517C20.0043 20.1437 16.4116 22.2929 12.5527 22.1586C7.23003 22.2929 2.83887 18.1289 2.7058 12.756C2.7058 12.6217 2.7058 12.353 2.7058 12.2187C2.57273 6.84583 6.83084 2.4132 12.1535 2.4132C12.2865 2.4132 12.5527 2.4132 12.6857 2.4132C16.5446 2.27888 20.1374 4.56235 21.7342 8.05473L23.9963 6.98015C21.7342 2.81616 17.343 0.12972 12.5527 0.264042C6.03244 -0.00460237 0.443683 5.09964 0.177551 11.6814C0.177551 11.9501 0.177551 12.0844 0.177551 12.353C0.0444857 18.9348 5.23405 24.442 11.8873 24.5764C12.1535 24.5764 12.4196 24.5764 12.5527 24.5764C17.343 24.7107 21.7342 22.0242 23.8632 17.7259L21.6011 16.517Z" fill="#506B86"/>
</svg>
