<svg width="39" height="50" viewBox="0 0 39 50" fill="none" xmlns="http://www.w3.org/2000/svg">
<rect x="16.0344" y="0.0566406" width="8.6123" height="49.7577" fill="white"/>
<path d="M7.31011 43.5086C9.99732 43.5086 12.1757 41.3302 12.1757 38.643C12.1757 35.9558 9.99732 33.7773 7.31011 33.7773C4.6229 33.7773 2.44449 35.9558 2.44449 38.643C2.44449 41.3302 4.6229 43.5086 7.31011 43.5086Z" fill="white" stroke="#476482" stroke-miterlimit="10" stroke-linecap="round" stroke-linejoin="round"/>
<path d="M25.975 41.5939C25.975 41.6737 26.0547 41.7535 26.1345 41.8332C26.294 42.1523 26.5333 42.3916 26.6929 42.6309C27.8893 44.0666 29.6441 44.944 31.5585 44.944C35.0681 44.944 37.9396 42.0725 37.9396 38.5629C37.9396 36.5688 37.0622 34.814 35.6265 33.6973" fill="white"/>
<path d="M25.975 41.5939C25.975 41.6737 26.0547 41.7535 26.1345 41.8332C26.294 42.1523 26.5333 42.3916 26.6929 42.6309C27.8893 44.0666 29.6441 44.944 31.5585 44.944C35.0681 44.944 37.9396 42.0725 37.9396 38.5629C37.9396 36.5688 37.0622 34.814 35.6265 33.6973" stroke="#476482" stroke-miterlimit="10" stroke-linecap="round" stroke-linejoin="round"/>
<path d="M3.24212 33.6973C1.80636 34.8937 0.928955 36.6485 0.928955 38.6427C0.928955 42.1523 3.80047 45.0238 7.3101 45.0238C10.1018 45.0238 12.4948 43.1892 13.3722 40.6368C13.4519 40.3177 13.5317 39.9986 13.6115 39.6796" fill="white"/>
<path d="M3.24212 33.6973C1.80636 34.8937 0.928955 36.6485 0.928955 38.6427C0.928955 42.1523 3.80047 45.0238 7.3101 45.0238C10.1018 45.0238 12.4948 43.1892 13.3722 40.6368C13.4519 40.3177 13.5317 39.9986 13.6115 39.6796" stroke="#476482" stroke-miterlimit="10" stroke-linecap="round" stroke-linejoin="round"/>
<path d="M31.5585 43.5086C34.2457 43.5086 36.4241 41.3302 36.4241 38.643C36.4241 35.9558 34.2457 33.7773 31.5585 33.7773C28.8713 33.7773 26.6929 35.9558 26.6929 38.643C26.6929 41.3302 28.8713 43.5086 31.5585 43.5086Z" fill="white" stroke="#476482" stroke-miterlimit="10" stroke-linecap="round" stroke-linejoin="round"/>
<path d="M3.24213 33.6971C3.24213 33.6971 4.35883 32.4209 8.26728 31.3839C10.5804 30.8256 12.7341 29.7886 14.4889 28.1934C15.2865 27.5552 15.9246 26.7576 16.483 25.96L18.0783 28.5922C18.0783 28.5922 15.5258 30.6661 13.2924 40.5568" fill="white"/>
<path d="M3.24213 33.6971C3.24213 33.6971 4.35883 32.4209 8.26728 31.3839C10.5804 30.8256 12.7341 29.7886 14.4889 28.1934C15.2865 27.5552 15.9246 26.7576 16.483 25.96L18.0783 28.5922C18.0783 28.5922 15.5258 30.6661 13.2924 40.5568" stroke="#476482" stroke-miterlimit="10" stroke-linecap="round" stroke-linejoin="round"/>
<path d="M20.3914 19.9774C20.3914 19.9774 22.3058 23.0085 22.3856 23.4073C22.3856 23.4073 27.1714 15.4309 28.0488 14.1547C28.9262 12.9582 32.2763 8.49139 30.681 2.82812L22.0665 17.3452L20.3914 19.9774Z" fill="white" stroke="#476482" stroke-miterlimit="10" stroke-linecap="round" stroke-linejoin="round"/>
<path d="M26.6131 42.6306C26.5333 42.5509 26.4536 42.3913 26.3738 42.3116C26.294 42.2318 26.2143 42.0723 26.1345 41.9925C26.0547 41.833 25.975 41.7532 25.8952 41.6735C25.0178 40.1579 24.7785 38.5626 24.6987 37.5257C24.619 35.8507 24.0606 34.4947 23.1832 33.1387" fill="white"/>
<path d="M26.6131 42.6306C26.5333 42.5509 26.4536 42.3913 26.3738 42.3116C26.294 42.2318 26.2143 42.0723 26.1345 41.9925C26.0547 41.833 25.975 41.7532 25.8952 41.6735C25.0178 40.1579 24.7785 38.5626 24.6987 37.5257C24.619 35.8507 24.0606 34.4947 23.1832 33.1387" stroke="#476482" stroke-miterlimit="10" stroke-linecap="round" stroke-linejoin="round"/>
<path d="M22.3058 26.04C23.1035 27.396 24.5392 28.5925 25.8154 29.4699C27.1714 30.3473 28.687 30.9854 30.2822 31.3842C33.8716 32.3414 35.5467 33.7772 35.5467 33.7772" fill="white"/>
<path d="M22.3058 26.04C23.1035 27.396 24.5392 28.5925 25.8154 29.4699C27.1714 30.3473 28.687 30.9854 30.2822 31.3842C33.8716 32.3414 35.5467 33.7772 35.5467 33.7772" stroke="#476482" stroke-miterlimit="10" stroke-linecap="round" stroke-linejoin="round"/>
<path d="M16.7223 23.567C16.7223 23.567 11.9365 15.5108 11.0591 14.3143C10.1019 13.1179 6.75179 8.65106 8.34708 2.98779L17.0414 17.5049L18.7164 20.1371" fill="white"/>
<path d="M16.7223 23.567C16.7223 23.567 11.9365 15.5108 11.0591 14.3143C10.1019 13.1179 6.75179 8.65106 8.34708 2.98779L17.0414 17.5049L18.7164 20.1371" stroke="#476482" stroke-miterlimit="10" stroke-linecap="round" stroke-linejoin="round"/>
<path d="M16.7223 23.5669L23.1832 32.9791" stroke="#476482" stroke-miterlimit="10" stroke-linecap="round" stroke-linejoin="round"/>
<path d="M22.3058 26.0398L18.7164 20.1372" stroke="#476482" stroke-miterlimit="10" stroke-linecap="round" stroke-linejoin="round"/>
<path d="M19.3545 24.9215C19.7506 24.9215 20.0716 24.6004 20.0716 24.2044C20.0716 23.8084 19.7506 23.4873 19.3545 23.4873C18.9585 23.4873 18.6374 23.8084 18.6374 24.2044C18.6374 24.6004 18.9585 24.9215 19.3545 24.9215Z" fill="#476482"/>
<path d="M7.31011 43.5086C9.99732 43.5086 12.1757 41.3302 12.1757 38.643C12.1757 35.9558 9.99732 33.7773 7.31011 33.7773C4.6229 33.7773 2.44449 35.9558 2.44449 38.643C2.44449 41.3302 4.6229 43.5086 7.31011 43.5086Z" fill="white" stroke="#476482" stroke-miterlimit="10" stroke-linecap="round" stroke-linejoin="round"/>
</svg>
