<svg width="25" height="15" viewBox="0 0 25 15" fill="none" xmlns="http://www.w3.org/2000/svg">
<path d="M12.5743 14.4292H13.9584C13.9584 14.4292 14.3621 14.3707 14.5928 14.1366C14.7658 13.9025 14.7658 13.4929 14.7658 13.4929C14.7658 13.4929 14.7658 11.5616 15.6309 11.3275C16.4959 11.0348 17.5917 13.1417 18.7451 13.961C19.6102 14.6048 20.3022 14.4292 20.3022 14.4292L23.4165 14.3707C23.4165 14.3707 25.0312 14.2537 24.2815 12.9661C24.2238 12.8491 23.8201 11.9712 21.9747 10.2155C20.0139 8.34273 20.3022 8.69387 22.6091 5.47504C24.0508 3.54374 24.6275 2.31474 24.4545 1.84654C24.2815 1.37835 23.2434 1.4954 23.2434 1.4954H19.7255C19.7255 1.4954 19.4372 1.43687 19.2641 1.55392C19.0911 1.67097 18.9758 1.96359 18.9758 1.96359C18.9758 1.96359 18.3991 3.48522 17.6494 4.77275C16.0922 7.46486 15.4579 7.64044 15.2272 7.46486C14.6505 7.05519 14.7658 5.88471 14.7658 5.06537C14.7658 2.43178 15.1695 1.37835 14.0161 1.08573C13.6124 0.968681 13.3817 0.910156 12.4013 0.910156C11.1325 0.910156 10.0945 0.910156 9.46008 1.20278C9.05638 1.37835 8.76802 1.84654 8.94104 1.84654C9.17172 1.84654 9.69076 2.02212 9.97912 2.37326C10.3251 2.84145 10.3251 4.01194 10.3251 4.01194C10.3251 4.01194 10.5558 7.11372 9.86377 7.46486C9.4024 7.75748 8.71036 7.17224 7.32625 4.71423C6.6342 3.48522 6.05749 2.08064 6.05749 2.08064C6.05749 2.08064 5.99982 1.90507 5.76913 1.78802C5.53845 1.61245 5.25009 1.55392 5.25009 1.55392H1.90518C1.90518 1.55392 1.38614 1.55392 1.21313 1.78802C1.04011 1.96359 1.21313 2.37326 1.21313 2.37326C1.21313 2.37326 3.80832 8.57682 6.80721 11.7371C9.51775 14.6633 12.5743 14.4292 12.5743 14.4292Z" stroke="#314961" stroke-miterlimit="10" stroke-linecap="round" stroke-linejoin="round"/>
</svg>
