<svg width="220" height="272" viewBox="0 0 220 272" fill="none" xmlns="http://www.w3.org/2000/svg">
<path d="M131.568 159.661V222.289L124.967 220.518V160.547" fill="#B6BEC6"/>
<path d="M131.568 159.661V222.289L124.967 220.518V160.547" stroke="#C8CCCF" stroke-miterlimit="10" stroke-linecap="round" stroke-linejoin="round"/>
<path d="M28.2084 248.29L131.568 222.37L124.967 220.519L28.2084 244.185" fill="#B6BEC6"/>
<path d="M28.2084 248.29L131.568 222.37L124.967 220.519L28.2084 244.185" stroke="#C8CCCF" stroke-miterlimit="10" stroke-linecap="round" stroke-linejoin="round"/>
<path d="M131.568 222.45L28.2084 248.37V22.0098L131.568 33.199V222.45Z" stroke="#E5EAF0" stroke-miterlimit="10" stroke-linecap="round" stroke-linejoin="round"/>
<path d="M12.4307 1V270.508L146.058 232.835V19.5146L12.4307 1ZM131.568 222.45L28.2083 248.371V22.01L131.568 33.1188V222.45Z" fill="white" stroke="#C8CCCF" stroke-miterlimit="10"/>
<path d="M37.4657 161.513H21.7686V154.912L37.4657 153.222V161.513Z" fill="#1F76CC" stroke="#E5EAF0" stroke-miterlimit="10" stroke-linecap="round" stroke-linejoin="round"/>
<path opacity="0.27" d="M28.2083 248.37L90.6749 159.661L27.8864 167.148L28.2083 248.37Z" fill="white"/>
<path d="M35.3727 130.361L23.298 131.005L25.8739 135.754C25.8739 135.754 40.4441 135.271 40.3636 135.19C40.2831 135.11 35.3727 130.361 35.3727 130.361Z" fill="#1F76CC" stroke="#E5EAF0" stroke-miterlimit="10" stroke-linecap="round" stroke-linejoin="round"/>
<path d="M139.296 37.6266L22.171 24.9883V8.08374L139.296 24.1834V37.6266Z" fill="#2B8CFC" stroke="#E5EAF0" stroke-miterlimit="10" stroke-linecap="round" stroke-linejoin="round"/>
<path d="M144.609 135.754C147.829 142.355 144.287 144.045 139.296 145.092V158.696L21.7686 175.198V154.832C33.6823 159.984 35.3728 156.603 34.9703 153.464C34.9703 153.464 34.9703 153.464 34.9703 153.383C34.8093 151.693 33.8433 150.083 32.4748 149.036C25.552 143.723 23.2175 130.924 23.2175 130.924C34.7288 136.157 35.9362 132.051 35.6142 128.992C35.4532 127.543 34.8093 126.255 33.9238 125.128C23.5395 112.007 22.0906 97.8395 22.0906 97.8395C22.6541 97.92 23.137 97.92 23.62 97.8395C32.7163 96.1491 22.0906 61.9373 22.0906 61.9373C22.0906 61.9373 23.5395 62.2593 25.23 62.0983C26.84 61.9373 28.6914 61.2129 29.7379 59.2809C34.0848 50.5871 22.0906 24.9082 22.0906 24.9082L139.215 36.8219C139.215 36.8219 152.82 71.5971 139.215 67.7332C139.215 67.7332 153.705 100.013 139.215 97.3565C139.215 97.3565 140.825 106.211 142.435 111.605C144.126 116.998 150.727 122.23 139.698 125.853C139.859 126.014 142.596 131.568 144.609 135.754Z" fill="#2B8CFC" stroke="#E5EAF0" stroke-miterlimit="10" stroke-linecap="round" stroke-linejoin="round"/>
<path d="M22.171 62.0175L139.296 67.8938" stroke="#E5EAF0" stroke-miterlimit="10" stroke-linecap="round" stroke-linejoin="round"/>
<path d="M22.171 98.0006L139.296 97.5176" stroke="#E5EAF0" stroke-miterlimit="10" stroke-linecap="round" stroke-linejoin="round"/>
<path d="M31.8308 133.5L139.859 126.013" stroke="#E5EAF0" stroke-miterlimit="10" stroke-linecap="round" stroke-linejoin="round"/>
<path d="M35.6947 130.361L23.298 131.005" stroke="#E5EAF0" stroke-miterlimit="10" stroke-linecap="round" stroke-linejoin="round"/>
<path d="M31.4283 157.569L139.296 145.172" stroke="#E5EAF0" stroke-miterlimit="10" stroke-linecap="round" stroke-linejoin="round"/>
<path d="M132.936 30.543C132.936 31.9115 132.131 32.958 131.085 32.8775C130.038 32.797 129.234 31.509 129.234 30.1406C129.234 28.7721 130.038 27.7256 131.085 27.8061C132.131 27.8866 132.936 29.0941 132.936 30.543Z" fill="white" stroke="#C8CCCF" stroke-miterlimit="10"/>
<path d="M193.874 155.074C193.632 154.43 193.31 153.786 193.069 153.222C192.747 152.498 192.505 151.854 192.183 151.21C186.226 138.25 179.223 128.026 179.223 128.026C179.223 128.026 163.767 102.75 156.281 84.5573C148.875 66.2842 131.085 30.3015 131.085 30.3015" stroke="#C8CCCF" stroke-miterlimit="10"/>
<path d="M200.152 179.303C200.313 183.248 199.911 187.031 198.703 190.332C198.703 190.332 197.979 191.62 197.093 190.976C196.208 190.332 196.691 188.4 196.691 188.4C196.691 188.4 197.415 183.087 198.784 178.498" stroke="#C8CCCF" stroke-miterlimit="10"/>
<path d="M3.0929 265.597L12.3502 269.944V1L3.0929 3.17345V265.597Z" fill="#F4F4F4" stroke="#C8CCCF" stroke-miterlimit="10"/>
<path d="M1 10.0961L3.09296 9.6936V258.352L1 257.467V10.0961Z" fill="#F4F4F4" stroke="#C8CCCF" stroke-miterlimit="10"/>
<path d="M196.932 155.878C196.932 155.878 187.514 153.222 185.743 154.107C185.743 154.107 183.65 154.671 184.455 156.844C185.341 159.018 185.985 159.581 187.514 159.662C187.514 159.662 187.595 160.547 187.514 161.433C187.434 162.318 187.514 163.123 187.756 163.928C187.917 164.411 187.997 164.975 187.756 165.538C187.273 166.906 187.434 168.114 188.239 169.321C189.044 170.529 188.722 171.414 188.722 171.575C188.722 171.736 188.4 173.024 191.62 174.634C194.84 176.325 200.152 179.142 200.152 179.142L205.385 192.505C205.385 192.505 207.236 186.951 211.422 186.065C215.608 185.18 219.23 184.294 219.23 184.294C219.23 184.294 211.825 171.334 209.41 167.711C206.914 164.089 203.855 158.132 203.372 157.488C202.889 156.844 202.97 156.764 199.911 154.671L196.128 150.726L194.598 148.633C194.196 148.07 193.471 147.828 192.827 148.07C192.183 148.311 191.781 149.036 191.942 149.68C191.942 149.68 191.62 152.256 194.759 155.234" fill="#FCE3DB"/>
<path d="M196.932 155.878C196.932 155.878 187.514 153.222 185.743 154.107C185.743 154.107 183.65 154.671 184.455 156.844C185.341 159.018 185.985 159.581 187.514 159.662C187.514 159.662 187.595 160.547 187.514 161.433C187.434 162.318 187.514 163.123 187.756 163.928C187.917 164.411 187.997 164.975 187.756 165.538C187.273 166.906 187.434 168.114 188.239 169.321C189.044 170.529 188.722 171.414 188.722 171.575C188.722 171.736 188.4 173.024 191.62 174.634C194.84 176.325 200.152 179.142 200.152 179.142L205.385 192.505C205.385 192.505 207.236 186.951 211.422 186.065C215.608 185.18 219.23 184.294 219.23 184.294C219.23 184.294 211.825 171.334 209.41 167.711C206.914 164.089 203.855 158.132 203.372 157.488C202.889 156.844 202.97 156.764 199.911 154.671L196.128 150.726L194.598 148.633C194.196 148.07 193.471 147.828 192.827 148.07C192.183 148.311 191.781 149.036 191.942 149.68C191.942 149.68 191.62 152.256 194.759 155.234" stroke="#C8CCCF" stroke-miterlimit="10"/>
<path d="M179.625 176.566C169.724 190.009 154.912 183.569 154.912 183.569" stroke="#C8CCCF" stroke-miterlimit="10"/>
<path d="M155.993 198.225C156.181 198.026 156.401 197.87 156.655 197.757C156.913 197.643 157.171 197.587 157.429 197.587C157.749 197.579 158.054 197.643 158.343 197.78L159.234 198.237C159.491 198.358 159.773 198.419 160.077 198.419C160.601 198.419 161.062 198.169 161.46 197.669V198.782C161.058 199.208 160.597 199.421 160.077 199.421C159.773 199.421 159.491 199.36 159.234 199.239L158.29 198.753C158.025 198.632 157.737 198.575 157.429 198.583C157.171 198.583 156.913 198.649 156.655 198.782C156.401 198.915 156.181 199.099 155.993 199.333V198.225ZM155.987 200.675C156.175 200.475 156.396 200.319 156.65 200.206C156.903 200.089 157.159 200.03 157.417 200.03C157.737 200.022 158.042 200.087 158.331 200.224L159.204 200.675C159.47 200.804 159.759 200.868 160.071 200.868C160.591 200.868 161.05 200.618 161.448 200.118L161.454 201.225C161.052 201.651 160.591 201.864 160.071 201.864C159.767 201.864 159.485 201.804 159.228 201.682L158.337 201.225C158.048 201.089 157.743 201.024 157.423 201.032C157.165 201.032 156.907 201.099 156.65 201.231C156.396 201.364 156.175 201.548 155.987 201.782V200.675ZM170.419 200.64H171.603V201.524H170.419V203.505H169.329V201.524H165.444V200.886L169.265 194.974H170.419V200.64ZM166.675 200.64H169.329V196.456L169.2 196.69L166.675 200.64ZM173.079 199.227L173.513 194.974H177.884V195.975H174.433L174.175 198.302C174.593 198.056 175.068 197.932 175.599 197.932C176.376 197.932 176.993 198.19 177.45 198.706C177.907 199.218 178.136 199.911 178.136 200.786C178.136 201.665 177.898 202.358 177.421 202.866C176.948 203.37 176.286 203.622 175.435 203.622C174.681 203.622 174.066 203.413 173.589 202.995C173.112 202.577 172.841 201.999 172.775 201.261H173.8C173.866 201.749 174.04 202.118 174.321 202.368C174.603 202.614 174.974 202.737 175.435 202.737C175.939 202.737 176.333 202.565 176.618 202.222C176.907 201.878 177.052 201.403 177.052 200.798C177.052 200.227 176.896 199.77 176.583 199.427C176.275 199.079 175.862 198.905 175.347 198.905C174.874 198.905 174.503 199.009 174.234 199.216L173.946 199.45L173.079 199.227ZM179.372 196.38C179.372 195.974 179.517 195.618 179.806 195.313C180.099 195.009 180.452 194.856 180.866 194.856C181.273 194.856 181.618 195.009 181.903 195.313C182.193 195.614 182.337 195.97 182.337 196.38C182.337 196.794 182.193 197.147 181.903 197.44C181.618 197.733 181.273 197.88 180.866 197.88C180.456 197.88 180.105 197.733 179.812 197.44C179.519 197.147 179.372 196.794 179.372 196.38ZM180.866 197.13C181.077 197.13 181.255 197.061 181.4 196.925C181.544 196.784 181.616 196.602 181.616 196.38C181.616 196.153 181.544 195.968 181.4 195.823C181.255 195.675 181.077 195.6 180.866 195.6C180.651 195.6 180.47 195.679 180.321 195.835C180.177 195.987 180.105 196.169 180.105 196.38C180.105 196.591 180.177 196.768 180.321 196.913C180.47 197.057 180.651 197.13 180.866 197.13Z" fill="#314961"/>
<path d="M156.683 187.514L154.993 183.489L158.937 181.798" stroke="#C8CCCF" stroke-miterlimit="10"/>
<path d="M175.359 176.888L179.706 176.566L179.947 180.913" stroke="#C8CCCF" stroke-miterlimit="10"/>
</svg>
