<svg width="147" height="272" viewBox="0 0 147 272" fill="none" xmlns="http://www.w3.org/2000/svg">
<path d="M131.777 159.69V222.317L125.176 220.547V160.575" fill="#B6BEC6"/>
<path d="M131.777 159.69V222.317L125.176 220.547V160.575" stroke="#C8CCCF" stroke-miterlimit="10" stroke-linecap="round" stroke-linejoin="round"/>
<path d="M28.4974 248.319L131.776 222.398L125.176 220.547L28.4974 244.213" fill="#B6BEC6"/>
<path d="M28.4974 248.319L131.776 222.398L125.176 220.547L28.4974 244.213" stroke="#C8CCCF" stroke-miterlimit="10" stroke-linecap="round" stroke-linejoin="round"/>
<path d="M131.776 222.478L28.4974 248.399V22.0381L131.776 33.2273V222.478Z" stroke="#C8CCCF" stroke-miterlimit="10" stroke-linecap="round" stroke-linejoin="round"/>
<path d="M12.6392 1.02832V270.536L146.266 232.863V19.5429L12.6392 1.02832ZM131.857 222.479L28.4974 248.399V22.0383L131.857 33.1471V222.479Z" fill="white" stroke="#C8CCCF" stroke-miterlimit="10"/>
<path d="M37.7547 161.541H22.0576V154.94L37.7547 153.25V161.541Z" fill="#1F76CC" stroke="#C8CCCF" stroke-miterlimit="10" stroke-linecap="round" stroke-linejoin="round"/>
<path opacity="0.27" d="M28.4974 248.399L90.8834 159.69L28.0949 167.176L28.4974 248.399Z" fill="white"/>
<path d="M35.5812 130.389L23.5065 131.033L26.0824 135.782C26.0824 135.782 40.6526 135.299 40.5721 135.219C40.4916 135.138 35.5812 130.389 35.5812 130.389Z" fill="#1F76CC" stroke="#C8CCCF" stroke-miterlimit="10" stroke-linecap="round" stroke-linejoin="round"/>
<path d="M139.585 37.6549L22.46 25.0167V8.11206L139.585 24.2117V37.6549Z" fill="#2B8CFC" stroke="#C8CCCF" stroke-miterlimit="10" stroke-linecap="round" stroke-linejoin="round"/>
<path d="M144.898 135.782C148.118 142.383 144.576 144.074 139.585 145.12V158.724L22.0576 175.227V154.861C33.9713 160.012 35.6617 156.631 35.2593 153.492C35.2593 153.492 35.2593 153.492 35.2593 153.412C35.0983 151.721 34.1323 150.111 32.7638 149.065C25.841 143.752 23.5065 130.953 23.5065 130.953C35.0178 136.185 36.2252 132.08 35.9032 129.021C35.7422 127.572 35.0983 126.284 34.2128 125.157C23.8285 112.035 22.3795 97.8678 22.3795 97.8678C22.943 97.9483 23.426 97.9483 23.909 97.8678C33.0053 96.1774 22.3795 61.9657 22.3795 61.9657C22.3795 61.9657 23.8285 62.2877 25.519 62.1267C27.1289 61.9657 28.9804 61.2412 30.0269 59.3092C34.3738 50.6154 22.3795 24.9365 22.3795 24.9365L139.504 36.8502C139.504 36.8502 153.109 71.6254 139.504 67.7615C139.504 67.7615 153.994 100.041 139.504 97.3848C139.504 97.3848 141.114 106.24 142.724 111.633C144.415 117.026 151.016 122.259 139.987 125.881C140.068 126.042 142.805 131.597 144.898 135.782Z" fill="#2B8CFC" stroke="#C8CCCF" stroke-miterlimit="10" stroke-linecap="round" stroke-linejoin="round"/>
<path d="M22.46 62.0459L139.585 67.9223" stroke="#C8CCCF" stroke-miterlimit="10" stroke-linecap="round" stroke-linejoin="round"/>
<path d="M22.3795 98.029L139.585 97.546" stroke="#C8CCCF" stroke-miterlimit="10" stroke-linecap="round" stroke-linejoin="round"/>
<path d="M32.1198 133.528L140.068 126.042" stroke="#C8CCCF" stroke-miterlimit="10" stroke-linecap="round" stroke-linejoin="round"/>
<path d="M35.9837 130.389L23.5065 131.033" stroke="#C8CCCF" stroke-miterlimit="10" stroke-linecap="round" stroke-linejoin="round"/>
<path d="M31.7173 157.597L139.585 145.2" stroke="#C8CCCF" stroke-miterlimit="10" stroke-linecap="round" stroke-linejoin="round"/>
<path d="M133.145 30.5716C133.145 31.9401 132.34 32.9866 131.293 32.9061C130.247 32.8256 129.442 31.5376 129.442 30.1691C129.442 28.8006 130.247 27.7542 131.293 27.8347C132.34 27.9152 133.145 29.1226 133.145 30.5716Z" fill="white" stroke="#C8CCCF" stroke-miterlimit="10"/>
<path d="M3.38196 265.626L12.5587 269.973V1.02832L3.38196 3.20177V265.626Z" fill="#F4F4F4" stroke="#C8CCCF" stroke-miterlimit="10"/>
<path d="M1.289 10.1247L3.38195 9.72217V258.381L1.289 257.495V10.1247Z" fill="#F4F4F4" stroke="#C8CCCF" stroke-miterlimit="10"/>
<path d="M131.374 27.8342C131.374 27.8342 134.916 93.1987 136.123 113.323C137.331 133.367 135.801 190.038 136.123 197.524C136.445 205.011 136.606 213.06 136.606 213.06C136.606 213.06 131.857 215.475 133.95 206.46C136.123 197.444 137.975 178.607 137.975 178.607" stroke="#C8CCCF" stroke-miterlimit="10"/>
</svg>
